<svg id="Layer_1" enable-background="new 0 0 66 66" height="512" viewBox="0 0 66 66" width="512" xmlns="http://www.w3.org/2000/svg"><g><g><path d="m18.2 33.7-6.4 9.3c-.4.6-1.3.9-2.1.4l-6.6-4.5 4.7-14.4 10 7.3c.6.3.9 1.3.4 1.9z"/></g><g><path d="m19.6 48.1-1.3 1.4c-.5.6-1.4.6-1.9.1 0 0 0 0 0-.1-.3-.2-.4-.6-.5-.9 0-.4.1-.7.4-1l1.3-1.4c.5-.6 1.4-.6 1.9-.1.5.6.6 1.5.1 2z"/></g><g><path d="m23.1 51.4-1.3 1.4c-.5.5-1.3.6-1.9.1 0 0 0 0-.1 0-.3-.3-.4-.6-.4-1s.1-.7.3-1l1.3-1.4c.5-.6 1.4-.6 1.9-.1.3.3.4.6.5 1s-.1.8-.3 1z"/></g><g><path d="m26.6 54.7-1.3 1.4c-.5.5-1.3.6-1.9.1-.6-.5-.6-1.4-.1-1.9l1.3-1.4c.5-.6 1.4-.6 1.9-.1.6.5.6 1.4.1 1.9z"/></g><g><path d="m30.1 56.1c.6.5.6 1.4.1 1.9l-1.3 1.4c-.5.6-1.4.6-1.9.1-.6-.5-.6-1.4-.1-1.9l1.3-1.4c.4-.6 1.3-.6 1.9-.1z"/></g><g><path d="m24.4 35.8 6.1-3h15.1c0 .7.2 1.4.6 2l5.5 8.1c-.3.1-.7.4-1 .7-.5.4-.8.9-1 1.6l-8-5.5c-.2-.2-.5-.2-.8-.2-4.7.9-5.5-2.4-5.6-2.8-.1-.5-.5-.8-1-.8h-6.3c-.5 0-1 .5-1 1.1.1 2.1-1.5 3.2-2.8 3.7v-4.4c0-.2.1-.4.2-.5z"/></g><g><path d="m51.8 51.1c-.5.8-1.6 1-2.4.4-1.4-1-4.8-3.3-4.6-3.1-.5-.3-1.1-.2-1.4.3s-.2 1.1.3 1.4l4 2.7c.6.6.8 1.5.3 2.2-.5.8-1.6 1-2.4.4 0 0-4.3-2.9-4.4-3-.5-.3-1.1-.2-1.4.3s-.2 1.1.3 1.4l3.7 2.6c.6.6.8 1.5.3 2.3s-1.6 1-2.4.4c-.1-.1-5.4-3.7-5.3-3.7-.5-.3-1.1-.2-1.4.2-.3.5-.2 1.1.2 1.4l4.6 3.2c.7.6.9 1.6.3 2.3-.5.8-1.6 1-2.4.4l-5.9-4.1c1.7-2.3 0-5.5-2.9-5.4 0-1.9-1.7-3.4-3.5-3.3v-.1c-.1-1.8-1.6-3.3-3.5-3.2v-.1c-.2-2.8-3.3-4.1-5.5-2.5-.5-.9-1.2-1.6-1.9-2l5.3-7.7c.4-.6.6-1.3.6-2h5.6l-2.5 1.2c-.8.4-1.4 1.3-1.4 2.2.2 4.3-.4 5.4.6 6.3.4.3.9.4 1.4.3 2.8-.9 4.5-2.6 4.8-4.8h4.7c.6 1.5 2.4 4.4 7.3 3.6l10.4 7.2c.8.5 1 1.5.5 2.3z"/></g><g><path d="m62.8 38.9-6.6 4.5c-.7.5-1.6.3-2.1-.4l-6.4-9.3c-.4-.6-.3-1.5.3-2l10-7.7z"/></g><g><path d="m27.6 16.7h10.9v5.1h-10.9z"/></g><g><path d="m15.8 16.7h9.8v5.1h-9.8c-.6 0-1.1-.5-1.1-1.1v-3c0-.5.4-1 1.1-1z"/></g><g><path d="m22.2 9.6h9.8v5.1h-10.9v-4c0-.6.5-1.1 1.1-1.1z"/></g><g><path d="m38.4 7.6h-10.8v-4c0-.6.5-1.1 1.1-1.1h8.7c.6 0 1.1.5 1.1 1.1v4z"/></g><g><path d="m44.9 14.7h-10.9v-5.1h9.8c.6 0 1.1.5 1.1 1.1z"/></g><g><path d="m51.3 17.8v3c0 .6-.5 1.1-1.1 1.1h-9.8v-5.1h9.8c.6-.1 1.1.4 1.1 1z"/></g></g></svg>