<svg height="512" viewBox="0 0 64 64" width="512" xmlns="http://www.w3.org/2000/svg"><g id="Layer_33" data-name="Layer 33"><path d="m32 18.93a13.07 13.07 0 1 0 13.07 13.07 13.08 13.08 0 0 0 -13.07-13.07zm7.71 14.37a.52.52 0 0 1 -.35.14.54.54 0 0 1 -.36-.14l-1.19-1.19v6.3a.5.5 0 0 1 -.5.5h-10.62a.5.5 0 0 1 -.5-.5v-6.3l-1.19 1.19a.51.51 0 0 1 -.71 0 .5.5 0 0 1 0-.71l2.71-2.71v-3.05a.5.5 0 0 1 .5-.5.5.5 0 0 1 .5.5v2.05l3.65-3.65a.5.5 0 0 1 .7 0l7.36 7.36a.5.5 0 0 1 0 .71z"/><path d="m32 3.5a28.5 28.5 0 1 0 28.5 28.5 28.54 28.54 0 0 0 -28.5-28.5zm-3.73 7.7a20 20 0 0 1 3.23-.31v-3.6a.5.5 0 1 1 1 0v3.6a20 20 0 0 1 3.23.31.5.5 0 0 1 .4.58.51.51 0 0 1 -.59.4 20 20 0 0 0 -7.08 0h-.1a.51.51 0 0 1 -.49-.41.5.5 0 0 1 .4-.57zm-16.09 24.34a.5.5 0 0 1 -.4.59h-.09a.49.49 0 0 1 -.49-.41 19.87 19.87 0 0 1 -.31-3.23h-3.6a.5.5 0 1 1 0-1h3.6a19.87 19.87 0 0 1 .31-3.23.5.5 0 1 1 1 .19 19.74 19.74 0 0 0 0 7.08zm23.55 17.26a19.87 19.87 0 0 1 -3.23.31v3.6a.5.5 0 1 1 -1 0v-3.6a19.87 19.87 0 0 1 -3.23-.31.5.5 0 1 1 .19-1 20 20 0 0 0 7.08 0 .51.51 0 0 1 .59.4.5.5 0 0 1 -.4.6zm-3.73-2.65a18.15 18.15 0 1 1 18.15-18.15 18.17 18.17 0 0 1 -18.15 18.15zm24.71-17.65h-3.6a19.87 19.87 0 0 1 -.31 3.23.49.49 0 0 1 -.49.41h-.09a.5.5 0 0 1 -.4-.59 19.74 19.74 0 0 0 0-7.08.5.5 0 1 1 1-.19 19.87 19.87 0 0 1 .31 3.23h3.6a.5.5 0 1 1 0 1z"/></g></svg>