<svg height="512" viewBox="0 0 32 32" width="512" xmlns="http://www.w3.org/2000/svg"><g id="_x31_8"><path d="m29 12h-1.6933594c-.140625-.4003906-.3017578-.7900391-.4814453-1.1689453l1.1953125-1.1953125c.390625-.390625.390625-1.0234375 0-1.4140625l-4.2421875-4.2421875c-.375-.375-1.0390625-.375-1.4140625 0l-1.1953125 1.1953125c-.3789062-.1796875-.7685547-.3408203-1.1689453-.4814453v-1.6933594c0-.5527344-.4472656-1-1-1h-6c-.5522461 0-1 .4472656-1 1v1.6933594c-.4003906.140625-.7905273.3017578-1.168457.4814453l-1.1958008-1.1953125c-.390625-.390625-1.0234375-.390625-1.4140625 0l-4.2421875 4.2421875c-.390625.390625-.390625 1.0234375 0 1.4140625l1.1953125 1.1953125c-.1796875.3789062-.3408203.7685547-.4814453 1.1689453h-1.6933594c-.5522461 0-1 .4472656-1 1v6c0 .5527344.4477539 1 1 1h1.6933594c.140625.4003906.3017578.7900391.4814453 1.1689453l-1.1953125 1.1953125c-.390625.390625-.390625 1.0234375 0 1.4140625l4.2421875 4.2421875c.390625.390625 1.0234375.390625 1.4140625 0l1.1958008-1.1953125c.3779297.1796875.7680664.3408203 1.168457.4814453v1.6933594c0 .5527344.4477539 1 1 1h6c.5527344 0 1-.4472656 1-1v-1.6933594c.4003906-.140625.7900391-.3017578 1.1689453-.4814453l1.1953125 1.1953125c.375.375 1.0390625.375 1.4140625 0l4.2421875-4.2421875c.1875-.1875.2929688-.4414063.2929688-.7070313s-.1054688-.5195313-.2929688-.7070313l-1.1953125-1.1953125c.1796875-.3789061.3408203-.7685546.4814453-1.1689452h1.6933594c.5527344 0 1-.4472656 1-1v-6c0-.5527344-.4472656-1-1-1zm-15.1607666-4.196106c.0934448-.4674682.5039062-.803894.9805908-.803894h2.3603516c.4766846 0 .887146.3364258.9805908.803894l.8392334 4.196106h-6zm-3.9857178 14.0496216-2 2c-.0976562.0976563-.2255859.1464844-.3535156.1464844s-.2558594-.0488281-.3535156-.1464844c-.1953125-.1953125-.1953125-.5117188 0-.7070313l1.6464844-1.6464843-1.6464844-1.6464844c-.1953125-.1953125-.1953125-.5117188 0-.7070313s.5117188-.1953125.7070313 0l2 2c.1953124.1953126.1953124.5117188-.0000001.7070313zm5 0-2 2c-.0976562.0976563-.2255859.1464844-.3535156.1464844s-.2558594-.0488281-.3535156-.1464844c-.1953125-.1953125-.1953125-.5117188 0-.7070313l1.6464844-1.6464843-1.6464844-1.6464844c-.1953125-.1953125-.1953125-.5117188 0-.7070313s.5117188-.1953125.7070313 0l2 2c.1953124.1953126.1953124.5117188-.0000001.7070313zm5 0-2 2c-.0976562.0976563-.2255859.1464844-.3535156.1464844s-.2558594-.0488281-.3535156-.1464844c-.1953125-.1953125-.1953125-.5117188 0-.7070313l1.6464844-1.6464843-1.6464844-1.6464844c-.1953125-.1953125-.1953125-.5117188 0-.7070313s.5117188-.1953125.7070313 0l2 2c.1953124.1953126.1953124.5117188-.0000001.7070313zm-10.8535156-4.8535156c-.5522461 0-1-.4477539-1-1s.4477539-1 1-1c0-2.6275024 1.4567871-4.9188843 3.6035156-6.1159058l-.8232422 4.1159058h8.4394531l-.8226929-4.1154175c2.1462403 1.1970825 3.6029664 3.4882202 3.6029664 6.1154175.5527344 0 1 .4477539 1 1s-.4472656 1-1 1zm15.8535156 4.8535156-2 2c-.0976562.0976563-.2255859.1464844-.3535156.1464844s-.2558594-.0488281-.3535156-.1464844c-.1953125-.1953125-.1953125-.5117188 0-.7070313l1.6464844-1.6464843-1.6464844-1.6464844c-.1953125-.1953125-.1953125-.5117188 0-.7070313s.5117188-.1953125.7070313 0l2 2c.1953124.1953126.1953124.5117188-.0000001.7070313z"/></g></svg>