<svg id="Layer_1" viewBox="0 0 512 512" xmlns="http://www.w3.org/2000/svg" data-name="Layer 1"><path d="m221.078 361.746c4.195 2.92 8.674 5.301 13.407 7.087l-35.688 133.172-42.293-66.784-70.016 36.68 43.427-162.029c3.146 2.948 5.669 6.491 7.653 10.772 5.272 11.367 13.89 20.75 24.746 27.014 10.771 6.208 23.357 9.014 35.745 7.909 8.561-.737 15.959 1.219 23.018 6.179zm153.354-41.102c-5.302 11.367-13.891 20.75-24.747 27.014-10.771 6.208-23.357 9.014-35.745 7.909-8.589-.737-15.959 1.219-23.017 6.179-5.585 3.912-11.707 6.803-18.143 8.646l35.264 131.613 42.265-66.784 70.016 36.68-42.208-157.55c-1.389 1.899-2.607 3.997-3.685 6.293zm56.947-135.269c0 10.431-3.26 20.098-8.844 28.035-6.576 9.383-9.298 19.531-8.277 30.954.851 9.666-1.162 19.672-6.378 28.687-5.216 9.042-12.869 15.789-21.656 19.871-10.403 4.847-17.83 12.274-22.678 22.677-4.082 8.787-10.828 16.441-19.871 21.656-9.014 5.216-19.021 7.229-28.687 6.378-11.423-1.021-21.571 1.701-30.954 8.277-7.937 5.584-17.604 8.844-28.034 8.844s-20.098-3.26-28.035-8.844c-9.383-6.576-19.53-9.298-30.954-8.277-9.666.85-19.673-1.162-28.715-6.378-9.015-5.216-15.761-12.869-19.843-21.656-4.848-10.403-12.274-17.83-22.677-22.677-8.788-4.082-16.441-10.828-21.657-19.871-5.216-9.014-7.229-19.021-6.378-28.687 1.021-11.424-1.7-21.572-8.277-30.954-5.584-7.937-8.844-17.603-8.844-28.035s3.26-20.098 8.844-28.035c6.577-9.383 9.298-19.531 8.277-30.954-.851-9.666 1.162-19.672 6.378-28.687 5.216-9.042 12.869-15.789 21.657-19.871 10.402-4.847 17.829-12.274 22.677-22.677 4.082-8.787 10.828-16.441 19.843-21.657 9.042-5.216 19.049-7.228 28.715-6.378 11.424 1.02 21.571-1.701 30.954-8.277 7.938-5.584 17.604-8.844 28.035-8.844s20.098 3.26 28.034 8.844c9.383 6.576 19.531 9.297 30.954 8.277 9.666-.85 19.673 1.162 28.687 6.378 9.043 5.216 15.789 12.869 19.871 21.657 4.848 10.403 12.274 17.83 22.678 22.677 8.787 4.082 16.44 10.829 21.656 19.871 5.216 9.014 7.229 19.021 6.378 28.687-1.021 11.424 1.701 21.572 8.277 30.954 5.584 7.937 8.844 17.603 8.844 28.035zm-44.447 0c0-72.312-58.62-130.961-130.932-130.961s-130.96 58.649-130.96 130.961 58.648 130.932 130.961 130.932 130.932-58.621 130.932-130.932zm-130.932-118.942c-65.707 0-118.942 53.234-118.942 118.942 0 16.894 3.516 32.995 9.894 47.537l30.841-30.812c4.479-4.507 6.604-9.865 6.378-16.243-.737-20.579 7.058-40.422 21.628-54.992 27.609-27.61 56.467-24.86 89.093-12.302-14.882 14.91-29.792 29.821-44.674 44.703l5.896 21.997 21.997 5.896 44.674-44.702c12.586 32.655 15.335 61.512-12.274 89.121-14.57 14.57-34.412 22.365-54.992 21.628-6.378-.227-11.735 1.871-16.242 6.378l-30.841 30.841c14.569 6.35 30.643 9.893 47.565 9.893 65.679 0 118.941-53.263 118.941-118.942s-53.263-118.942-118.941-118.942zm-.057 178.781c16.61.595 33.392-5.443 46.091-18.114 16.016-16.044 21.458-38.665 16.271-59.159l-36.623 36.595-17.688-4.734-17.688-4.734-4.733-17.688-4.762-17.688 36.623-36.624c-20.494-5.188-43.115.255-59.159 16.271-12.671 12.671-18.708 29.48-18.113 46.091.34 9.751-3.005 18.255-9.893 25.143l-33.647 33.647c10.573 18.539 25.994 33.959 44.532 44.532l33.647-33.647c6.888-6.888 15.392-10.233 25.144-9.893z" fill-rule="evenodd"/></svg>