<svg clip-rule="evenodd" fill-rule="evenodd" stroke-linejoin="round" stroke-miterlimit="2" viewBox="0 0 510 510" xmlns="http://www.w3.org/2000/svg"><path d="m64.576 216.433c21.333-63.65 73.71-113.118 139.11-130.382l14.614 10.617s-5.989 18.432-8.39 25.82c-60.611 17.32-106.923 68.672-116.906 132.026h-2.326s-9.368-28.83-9.368-28.83c-1.874-5.768-7.249-9.674-13.315-9.674-1.172 0-2.318.146-3.419.423zm241.738-130.382c65.4 17.264 117.777 66.732 139.11 130.382-1.101-.277-2.247-.423-3.419-.423-6.066 0-11.441 3.906-13.315 9.674l-9.368 28.83h-2.326c-9.983-63.354-56.295-114.706-116.906-132.026l-8.39-25.82s7.809-5.673 14.614-10.617zm143.273 243.78c-22.115 86.842-100.901 151.148-194.587 151.148s-172.472-64.306-194.587-151.148l7.582-5.509s24.524 17.818 24.524 17.818c3.401 2.471 7.636 3.229 11.549 2.275 25.006 58.639 83.202 99.786 150.932 99.786s125.926-41.147 150.932-99.786c3.913.954 8.148.196 11.549-2.275l24.524-17.818zm-245.594 60.788h-32.974c-1.326 0-2.597-.527-3.535-1.464-.938-.938-1.465-2.21-1.464-3.536v-49.262c0-11.887 4.722-23.287 13.127-31.693 8.406-8.405 19.806-13.127 31.693-13.127h18.953l25.207 24.217 25.103-24.217h19.057c11.887 0 23.287 4.722 31.693 13.127 8.405 8.406 13.127 19.806 13.127 31.693v49.262c.001 1.326-.526 2.598-1.464 3.536-.938.937-2.209 1.464-3.535 1.464h-32.974v-44.295c0-3.864-3.136-7-7-7-3.863 0-7 3.136-7 7v44.295h-74.014v-44.295c0-3.864-3.137-7-7-7-3.864 0-7 3.136-7 7zm94.748-151.656c-4.169 20.335-22.18 35.65-43.741 35.65s-39.572-15.315-43.741-35.65zm-98.355-18.411v-.003c0-1.17.465-2.292 1.292-3.119.674-.675 1.545-1.108 2.478-1.245.024-.004.048-.007.072-.01.188-.025.378-.037.569-.037h100.406c.191 0 .381.012.569.037.024.003.048.006.072.01.933.137 1.804.57 2.478 1.245.827.827 1.292 1.949 1.292 3.119v.003c0 1.17-.465 2.292-1.292 3.119s-1.949 1.292-3.119 1.292h-100.406c-1.17 0-2.292-.465-3.119-1.292s-1.292-1.949-1.292-3.119zm37.571-54.878 2.278 16.286c.382 2.733 2.911 4.641 5.644 4.259s4.642-2.911 4.26-5.644l-3.093-22.114c-.006-.042-.011-.084-.018-.125l-.3-2.152c1.82-.751 4.633-1.565 8.272-1.565s6.452.814 8.272 1.565c0 0-.114.819-.301 2.157-.006.038-.011.076-.016.115-.847 6.055-3.094 22.119-3.094 22.119-.382 2.733 1.527 5.262 4.26 5.644s5.262-1.526 5.644-4.259l2.278-16.286c16.427 6.474 28.297 22.028 29.417 40.464h-16.257v-13.458c0-2.76-2.241-5-5-5-2.76 0-5 2.24-5 5v13.458h-40.406v-13.458c0-2.76-2.24-5-5-5-2.759 0-5 2.24-5 5v13.458h-16.257c1.12-18.436 12.99-33.99 29.417-40.464zm17.043-136.653 12.511 38.503h40.484l-32.753 23.797 12.511 38.503-32.753-23.796-32.753 23.796 12.511-38.503-32.753-23.797h40.484zm187.005 200.989 12.51 38.504h40.485l-32.753 23.796 12.511 38.504-32.753-23.797-32.753 23.797 12.51-38.504-32.753-23.796h40.485zm-374.01 0 12.511 38.504h40.485l-32.753 23.796 12.51 38.504-32.753-23.797-32.753 23.797 12.511-38.504-32.753-23.796h40.485z"/></svg>