<svg id="Layer_1" enable-background="new 0 0 68 68" height="512" viewBox="0 0 68 68" width="512" xmlns="http://www.w3.org/2000/svg"><g><path d="m20.08472 61.0961c.02539 0 .05078-.00098.07666-.00391.41211-.04199.7124-.40918.67041-.82129-.01367-.13477-.02002-.27051-.02002-.4082 0-.41406-.33594-.75-.75-.75s-.75.33594-.75.75c0 .18848.00928.375.02783.55859.03906.38672.36475.67481.74512.67481z"/><path d="m25.66138 64.71231c0-.41406-.33594-.75-.75-.75-1.38232 0-2.66357-.69238-3.42725-1.85254-.22705-.3457-.69287-.43945-1.03857-.21484-.34619.22852-.44189.69336-.21436 1.03906 1.04199 1.58301 2.7915 2.52832 4.68018 2.52832.41406 0 .75-.33594.75-.75z"/><path d="m57.37476 44.53458c.35749.20681.81709.08475 1.02441-.27441.20703-.35938.08398-.81738-.27441-1.02441l-1.6875-.97363c-.35938-.20898-.81836-.08301-1.02441.27441-.20703.35938-.08398.81738.27441 1.02441z"/><path d="m61.42358 30.92422c.41406 0 .75-.33594.75-.75s-.33594-.75-.75-.75h-1.94824c-.41406 0-.75.33594-.75.75s.33594.75.75.75z"/><path d="m57.37476 15.8129-1.6875.97363c-.3584.20703-.48145.66504-.27441 1.02441.20733.35917.66693.48122 1.02441.27441l1.6875-.97363c.3584-.20703.48145-.66504.27441-1.02441-.20703-.35742-.66406-.48242-1.02441-.27441z"/><g><path d="m56.55676 29.58963c0-12.43005-10.12-22.55005-22.56-22.55005-12.42999 0-22.54999 10.12-22.54999 22.55005 0 8.29999 4.5 15.82996 11.77002 19.78998v2.64996h-1.96002c-.40997 0-.75.34003-.75.75 0 .42004.34003.75.75.75h1.96002v2.48004h-1.96002c-.40997 0-.75.33997-.75.75 0 .40997.34003.75.75.75h1.96002v2.34998c0 .94.76001 1.70001 1.69 1.70001h1.73999l1.57001 3.39001c.29999.64001.94 1.04999 1.64001 1.04999h8.27997c.71002 0 1.35004-.40997 1.64001-1.04999l1.58002-3.39001h1.72998c.94 0 1.70001-.76001 1.70001-1.70001v-2.34998h1.95001c.41998 0 .75-.34003.75-.75 0-.41003-.33002-.75-.75-.75h-1.95v-2.48004h1.95001c.41998 0 .75-.32996.75-.75 0-.40997-.33002-.75-.75-.75h-1.95001v-2.64996c7.26001-3.96002 11.76996-11.48999 11.76996-19.78998zm-40.53308-4.95642c.11035-.39941.52441-.63281.92285-.52246.39893.11035.6333.52344.52246.92285-.13867.5-.25586 1.01758-.34863 1.53711-.06494.36328-.38086.61816-.7373.61816-.04395 0-.08838-.00391-.13281-.01172-.40771-.07324-.6792-.46289-.60645-.87012.10107-.56542.22851-1.1289.37988-1.67382zm6.39893 18.61914c-.14746.16113-.34961.24316-.55225.24316-.18164 0-.36328-.06543-.50732-.19727-3.49658-3.21094-5.61279-7.58984-5.95898-12.33203-.03027-.41309.28027-.77246.69336-.80273.40674-.01758.77246.28027.80273.69336.31836 4.35938 2.26367 8.38574 5.47754 11.33594.30517.28027.32519.75488.04492 1.05957zm16.55468-26.29004c.27734-.30859.75391-.33301 1.05859-.05664l.18359.16504c.30859.27637.33398.75098.05664 1.05859-.276.3089-.7525.33337-1.05859.05664l-.18359-.16504c-.30859-.27636-.33398-.75097-.05664-1.05859zm4.30951 42.89728c0 .10999-.09003.20001-.20001.20001 0 0-2.53998 0-18.17999 0-.10004 0-.19-.09003-.19-.20001v-2.34998h18.57zm0-3.84998h-18.57v-2.48004h18.57zm0-3.98004h-18.57v-2.31h18.57zm1.22998-24.84997c-.15997.42999-.57001.72003-1.03998.72003h-1.22003v10.25995h1.14001c.41998 0 .75.33002.75.75 0 .41003-.33002.75-.75.75h-18.79998c-.41003 0-.75-.33997-.75-.75 0-.41998.33997-.75.75-.75h1.15997v-10.25995h-1.23999c-.46002 0-.87-.28003-1.03998-.72003-.05005-.13-.08002-.27002-.08002-.40002 0-.31.14001-.60999.38-.82996l9.46997-8.56c.42999-.38 1.08002-.38 1.5.01001l9.48004 8.54999c.34999.30999.45998.78997.28999 1.22998zm-.52484-4.68311-3.10156-2.79883c-.30664-.27734-.33105-.75195-.05371-1.05957.27637-.30762.75195-.33203 1.05957-.05371l3.10156 2.79883c.30664.27734.33105.75195.05371 1.05957-.276.30707-.75268.33136-1.05957.05371z"/><path d="m27.25677 38.15958h2.81v-4.53998c0-2.16998 1.77002-3.92999 3.92999-3.92999 2.17004 0 3.92999 1.76001 3.92999 3.92999v4.53998h2.83002v-10.25995h-13.5z"/><path d="m33.99976 5.44864c.41406 0 .75-.33594.75-.75v-1.94824c0-.41406-.33594-.75-.75-.75s-.75.33594-.75.75v1.94824c0 .41406.33593.75.75.75z"/><path d="m20.61304 8.48672c.20728.35907.66693.4812 1.02441.27441.35889-.20703.48145-.66602.27441-1.02441l-.97412-1.6875c-.20654-.35938-.6665-.48145-1.02441-.27441-.35889.20703-.48145.66602-.27441 1.02441z"/><path d="m9.87573 17.11172 1.68701.97363c.35742.20679.81714.08472 1.02441-.27441.20703-.3584.08447-.81738-.27441-1.02441l-1.68701-.97363c-.35791-.20801-.81689-.08398-1.02441.27441-.20703.3584-.08447.81738.27441 1.02441z"/><path d="m8.52466 29.42422h-1.94824c-.41406 0-.75.33594-.75.75s.33594.75.75.75h1.94824c.41406 0 .75-.33594.75-.75s-.33594-.75-.75-.75z"/><path d="m11.56274 42.26212-1.68701.97363c-.35889.20703-.48145.66602-.27441 1.02441.13867.24023.39063.375.6499.375.12744 0 .25635-.03223.37451-.10059l1.68701-.97363c.35889-.20703.48145-.66602.27441-1.02441s-.66698-.48242-1.02441-.27441z"/><path d="m46.36206 8.76114c.35748.20679.81708.08472 1.02441-.27441l.97461-1.6875c.20703-.3584.08398-.81738-.27441-1.02441-.36035-.20801-.81836-.08398-1.02441.27441l-.97461 1.6875c-.20703.35839-.08399.81738.27441 1.02441z"/></g></g></svg>