<?xml version="1.0" encoding="utf-8"?>
<!-- Generator: Adobe Illustrator 22.1.0, SVG Export Plug-In . SVG Version: 6.00 Build 0)  -->
<svg version="1.1" id="Ebene_1" xmlns="http://www.w3.org/2000/svg" xmlns:xlink="http://www.w3.org/1999/xlink" x="0px" y="0px"
	 viewBox="0 0 158.9 158.6" style="enable-background:new 0 0 158.9 158.6;" xml:space="preserve">
<style type="text/css">
	.st0{fill:#FFFFFF;}
	.st1{fill:#005CA9;}
</style>
<g>
	<path class="st0" d="M79.3-0.2C35.6-0.2,0,35.4,0,79.4c0,43.7,35.6,79.3,79.3,79.3c44,0,79.5-35.6,79.5-79.3
		C158.8,35.4,123.2-0.2,79.3-0.2"/>
	<path class="st1" d="M10,79.2c0-37.5,31.1-67.8,69.4-67.8c27.1,0,50.6,15.2,62,37.3h-68c0,0-9.2,0-9.2,8.4H145
		c2.4,6.9,3.8,14.4,3.8,22.1c0,37.5-31.1,67.8-69.4,67.8c-27.4,0-51.2-15.6-62.4-38.2h68.6c0,0,9.2,0,9.2-8.4H13.5
		C11.2,93.8,10,86.6,10,79.2"/>
	<path class="st0" d="M38.6,77.7c0,7.4-6,13.4-13.4,13.4c-5.2,0-9.8-3-12-7.4h13.1c0,0,1.8,0,1.8-1.7H12.5c-0.5-1.4-0.7-2.8-0.7-4.4
		c0-7.4,6-13.4,13.4-13.4c5.3,0,9.9,3.1,12.1,7.5H24c0,0-1.8,0-1.8,1.7h15.7C38.4,74.8,38.6,76.2,38.6,77.7"/>
</g>
<polygon class="st0" points="56.8,90.9 57.7,65.1 64.3,65.1 63.9,74 69.4,74 69.9,65.1 76.2,65.1 75.8,90.9 69,90.9 69.3,80.6 
	63.7,80.7 63.6,90.9 "/>
<polygon class="st0" points="79.1,65.1 88,65.1 89.4,78.1 91.7,65.1 100.3,65.1 100.2,90.9 94.4,90.9 94.4,74.7 91.5,90.9 86,90.9 
	83.8,74.7 83.4,90.9 77.8,90.9 "/>
<polygon class="st0" points="102.2,90.9 102.8,65.1 109.1,65.1 108.7,90.9 "/>
<g>
	<path class="st0" d="M111.4,65.1h10.7c0,0,6.9-0.2,6.9,11.8c0,12.1-8.2,14.3-10.1,13.9l-8.1,0L111.4,65.1z"/>
	<path class="st1" d="M117.3,71.3h2c0,0,3.2-0.1,3.2,5.6c0,5.7-2.7,6.8-3.3,6.6h-2.1L117.3,71.3z"/>
</g>
<polygon class="st0" points="133.8,90.9 134.6,71.3 129.4,71.4 129.5,65.1 146.5,65.1 146.4,71.4 140.9,71.4 140.7,90.9 "/>
<g>
	<path class="st0" d="M40.5,77.7C40.9,63.5,53.2,64,55,65.6l-0.2,6.7c-2.6-1.6-7.4-1-7.7,5.5c-0.4,8.9,7.6,5.9,7.6,5.9l-0.2,6.7
		C52.7,92,39.9,93.9,40.5,77.7"/>
</g>
</svg>
