<svg xmlns="http://www.w3.org/2000/svg" width="132.006" height="132" viewBox="0 0 132.006 132">
  <g id="Group_10195" data-name="Group 10195" transform="translate(-1649 -426)">
    <rect id="Rectangle_1528" data-name="Rectangle 1528" width="132" height="132" transform="translate(1649 426)" fill="#f7f9fd" opacity="0"/>
    <g id="Group_10192" data-name="Group 10192" transform="translate(1649 426)">
      <g id="Group_10194" data-name="Group 10194">
        <path id="Path_20327" data-name="Path 20327" d="M131.006,67.11a1,1,0,0,1-1-1V66A63.737,63.737,0,0,0,112.49,22.018a66.421,66.421,0,0,0-5.044-4.788A63.957,63.957,0,0,0,36.5,9.2c-.169.089-.328.174-.5.268l-.016.009A63.432,63.432,0,0,0,23.02,18.609a1,1,0,0,1-.093.075l-.006,0-2.5,2.4-1.232,1.281a63.2,63.2,0,0,0-4.365,5.2c-.537.715-1.112,1.515-1.5,2.086-.54.787-1.077,1.6-1.4,2.118a1,1,0,1,1-1.694-1.064c.34-.541.894-1.377,1.447-2.184.405-.593,1-1.42,1.553-2.157A65.207,65.207,0,0,1,17.735,21l.01-.01,1.25-1.3.028-.028,2.529-2.43a1.734,1.734,0,0,1,.158-.133A65.433,65.433,0,0,1,35.039,7.711c.186-.1.36-.2.529-.285l.006,0a65.9,65.9,0,0,1,73.17,8.286,68.442,68.442,0,0,1,5.2,4.934A65.737,65.737,0,0,1,132.006,66v.11A1,1,0,0,1,131.006,67.11Z"/>
        <path id="Path_20328" data-name="Path 20328" d="M66.006,132a65.706,65.706,0,0,1-43.581-16.45,66.1,66.1,0,0,1-16.364-21.9A65.615,65.615,0,0,1,1.576,80.374,66.4,66.4,0,0,1,.006,66,65.72,65.72,0,0,1,3.56,44.605a1,1,0,0,1,1.892.65A63.724,63.724,0,0,0,2.006,66,64.4,64.4,0,0,0,3.528,79.94a63.647,63.647,0,0,0,11.2,24.35,64.379,64.379,0,0,0,9.022,9.758A63.971,63.971,0,0,0,129.354,75.1a1,1,0,0,1,1.981.274A65.917,65.917,0,0,1,66.006,132Z"/>
        <path id="Path_20329" data-name="Path 20329" d="M131.006,66v.11c-1.882-1.4-4.393-6.273-6.76-3.08-.989,1.4-3.48,1.149-3.34-.82.582-3.957-3.438-5.8-5.63-8.4-2.045-1.773-5.19.167-7.24-1.49-2.933-3.062-5.211-5.954-9.27-2.479-3.691,3.244,3.542,5.4,5.529,7.189,3.279,2.219-1.289,5.9-2.33,8.275-2.12,1.187-5.854.981-8.1.2-1.961-2.288-4.953-3.3-4.269-6.875-.2-2.157-6.01-2.372-5.88.129.181,2.266-.815,3.4.6,5.36,3.167,2.6,5.525,6.946,9.421,8.311,1.818.6,6.467-1.338,6.28,1.528-8.6,9.892-14.619,9.3-12.99,23.841-.233,2.536-3.723,3.325-4.01,5.95.887,4.553-3.149,6.793-5.911,9.72-1.9,1.249-4.522.394-6.7.58-1.924-.417-3.06-2.555-4.49-3.78-1.2-2.84-.472-10.9-.911-13.96-.2-2.72.752-5.939-.639-8.39-5.915-3.982-.3-8.672-5.26-9.151-5.336-.47-11.314.957-16.32-.6-2.007-2.551-5.445-4.381-6.551-7.4.287-3.171-.835-6.948.62-9.81,1.91-2.719,6.062-4.475,6.481-7.92a4.338,4.338,0,0,1,3.2-3.78c4.19-.109,9.379-3.377,13.15-1.291,3.248,2.489,6.257,9.081,11.07,6.4,4.075-3.757,9.1-3.151,14.18-3.479,2.356-.449,2.239-6.237-.5-6.081-8.522,1.586-5.491-5.741-11.07-7.061-2.755-.666-9.534,1.788-9.95-1.968.574-3.2-1.974-4.765-4.871-4.041-2.23.619-2.983,3.1-4.349,4.71-3.2,2.73-6.86-2.332-6.57-5.31.562-3.494,4.433-5.427,6.59-8.03,3.594-1.464,6.663-.456,10.53-.811a3.412,3.412,0,0,0,2.52-1.079c1.848-2.116,7.025-2.82,7.04-6.24-.48-2.072.664-3.735,2.59-4.6,8.8-3.583,4.593,7.629,14.7-4.15A64.986,64.986,0,0,1,131.006,66" fill="#5fd2b1"/>
        <path id="Path_20330" data-name="Path 20330" d="M74.233,115.164c-.557,0-1.109-.037-1.638-.073a14.272,14.272,0,0,0-2.1-.044,1,1,0,0,1-.3-.019,7.246,7.246,0,0,1-3.7-2.715,13.117,13.117,0,0,0-1.228-1.283,1,1,0,0,1-.27-.371c-.825-1.955-.824-5.687-.824-9.3a42.976,42.976,0,0,0-.156-4.909q-.005-.035-.008-.07a22.108,22.108,0,0,1,.052-2.921c.111-1.8.216-3.5-.46-4.856a7.048,7.048,0,0,1-3.214-6.851,3.83,3.83,0,0,0-.119-1.523c-.129-.241-.55-.4-1.251-.467a47.576,47.576,0,0,0-6.279.028c-3.45.165-7.018.336-10.247-.667A1,1,0,0,1,42,78.789a21.241,21.241,0,0,0-2.575-2.567c-1.65-1.474-3.356-3-4.128-5.108a1,1,0,0,1-.057-.433,22.729,22.729,0,0,0-.05-3.358c-.144-2.32-.292-4.718.773-6.815a1,1,0,0,1,.073-.122,17.07,17.07,0,0,1,2.913-2.947c1.614-1.39,3.139-2.7,3.386-4.452a5.325,5.325,0,0,1,4.018-4.709,1,1,0,0,1,.157-.017,20.4,20.4,0,0,0,4.661-.941c3.075-.857,6.255-1.743,9-.225a1,1,0,0,1,.124.081,21.283,21.283,0,0,1,2.847,2.881,17,17,0,0,0,3.53,3.365,3.252,3.252,0,0,0,3.5.128c3.616-3.269,7.915-3.408,12.074-3.543.836-.027,1.7-.055,2.547-.108.547-.161.923-1.354.781-2.51-.02-.164-.218-1.572-1.03-1.581-2.482.451-4.279.238-5.648-.667a7.612,7.612,0,0,1-2.451-3.2c-.759-1.488-1.414-2.773-3.308-3.221a12.821,12.821,0,0,0-3.333.046,17.4,17.4,0,0,1-4.388.033,3.222,3.222,0,0,1-2.992-2.91,1,1,0,0,1,.01-.287,2.5,2.5,0,0,0-.589-2.381,3.293,3.293,0,0,0-3.041-.517c-1.171.331-1.844,1.4-2.623,2.639a15.1,15.1,0,0,1-1.22,1.751,1,1,0,0,1-.113.114,3.829,3.829,0,0,1-4.486.534,7.629,7.629,0,0,1-3.729-6.7q0-.031.008-.062c.435-2.705,2.463-4.483,4.424-6.2a21.5,21.5,0,0,0,2.383-2.306,1,1,0,0,1,.393-.288,15.919,15.919,0,0,1,7.032-.851,28.824,28.824,0,0,0,3.784-.029,1,1,0,0,1,.1,0,2.418,2.418,0,0,0,1.77-.753,11.157,11.157,0,0,1,3.245-2.18c2.13-1.107,3.527-1.941,3.534-3.39a1,1,0,1,1,2,.009,4.32,4.32,0,0,1-1.637,3.309,15.1,15.1,0,0,1-2.975,1.847,9.689,9.689,0,0,0-2.676,1.737l-.025.028A4.426,4.426,0,0,1,64.789,23.3a30.663,30.663,0,0,1-3.993.032,14.324,14.324,0,0,0-5.98.617,25.265,25.265,0,0,1-2.435,2.333c-1.763,1.546-3.429,3.007-3.763,4.985a4.959,4.959,0,0,0,.692,2.6,5.172,5.172,0,0,0,1.973,2.106,1.855,1.855,0,0,0,2.2-.231,14.257,14.257,0,0,0,1-1.458c.876-1.393,1.868-2.971,3.793-3.5l.025-.007a5.259,5.259,0,0,1,4.905.992A4.408,4.408,0,0,1,64.427,35.8c.069.416.291.845,1.344,1.036a16.137,16.137,0,0,0,3.855-.057,13.5,13.5,0,0,1,3.974,0c2.791.66,3.808,2.655,4.625,4.258A5.943,5.943,0,0,0,80,43.472c.911.6,2.3.718,4.255.355a1,1,0,0,1,.126-.015,2.685,2.685,0,0,1,2.32,1.081,4.562,4.562,0,0,1,.858,2.251c.249,2.021-.52,4.365-2.435,4.73a1,1,0,0,1-.123.016c-.905.058-1.812.088-2.69.116-4.005.13-7.789.253-10.877,3.1a1,1,0,0,1-.191.138,5.267,5.267,0,0,1-5.6-.108,18.35,18.35,0,0,1-4-3.762,20.7,20.7,0,0,0-2.5-2.565c-2.019-1.071-4.648-.338-7.43.437a22.591,22.591,0,0,1-5.055,1.011A3.424,3.424,0,0,0,44.336,53a1,1,0,0,1-.007.159c-.31,2.551-2.224,4.2-4.075,5.793a15.844,15.844,0,0,0-2.54,2.523c-.784,1.6-.66,3.6-.528,5.722a26.4,26.4,0,0,1,.064,3.423,12.514,12.514,0,0,0,3.507,4.109,25.171,25.171,0,0,1,2.61,2.57c2.819.8,5.957.653,9.273.494a49.021,49.021,0,0,1,6.553-.022H59.2a3.267,3.267,0,0,1,2.828,1.515,4.906,4.906,0,0,1,.354,2.525c-.05,1.72-.1,3.5,2.541,5.277a1,1,0,0,1,.311.336c1.082,1.907.948,4.068.819,6.158A20.673,20.673,0,0,0,66,96.2a44.426,44.426,0,0,1,.171,5.157c0,2.969,0,6.636.591,8.322A17.01,17.01,0,0,1,68,110.992a6.036,6.036,0,0,0,2.5,2.049,17.2,17.2,0,0,1,2.239.054,6.575,6.575,0,0,0,3.738-.4c.591-.618,1.229-1.2,1.848-1.77,2.312-2.119,4.31-3.95,3.719-6.979a1,1,0,0,1-.013-.3,5.815,5.815,0,0,1,2.364-3.655A4.143,4.143,0,0,0,86.021,97.8c-.565-5.139-.219-8.7,1.121-11.531,1.278-2.7,3.307-4.513,5.877-6.8A66.322,66.322,0,0,0,99,73.6a.173.173,0,0,0-.038-.079c-.026-.025-.183-.15-.771-.178a13.719,13.719,0,0,0-1.8.1,7.7,7.7,0,0,1-2.964-.062l-.019-.006c-2.734-.958-4.707-3.174-6.615-5.317a28.932,28.932,0,0,0-3.109-3.165,1,1,0,0,1-.176-.188,4.973,4.973,0,0,1-.867-4.051,8.753,8.753,0,0,0,.081-1.815q0-.014,0-.028a2.385,2.385,0,0,1,1.015-2.089,5.641,5.641,0,0,1,4.825-.427A3.06,3.06,0,0,1,90.5,59.381c-.1,1.57.75,2.387,2.265,3.7a18.578,18.578,0,0,1,1.665,1.564,10.975,10.975,0,0,0,6.777-.074,17.026,17.026,0,0,1,1.369-2.05c.906-1.232,2.033-2.764,1.865-3.739-.021-.123-.086-.5-.71-.92a1,1,0,0,1-.109-.085,14.247,14.247,0,0,0-2.183-1.372c-2.1-1.178-4.489-2.514-4.7-4.485a3.3,3.3,0,0,1,1.359-2.826l.01-.009c2.033-1.741,3.935-2.229,5.814-1.494a13.286,13.286,0,0,1,4.317,3.5l.462.486a4.339,4.339,0,0,0,2.842.448c1.425-.062,3.039-.132,4.379,1.029a1,1,0,0,1,.109.11,19.769,19.769,0,0,0,2,1.941c2.031,1.8,4.332,3.835,3.858,7.206-.018.385.146.5.311.556a1.125,1.125,0,0,0,1.217-.415l.013-.019a3.174,3.174,0,0,1,2.4-1.467c1.6-.071,2.937,1.321,4.119,2.645A63.975,63.975,0,0,0,91.2,7.148a1,1,0,0,1,.793-1.836A65.985,65.985,0,0,1,132.006,66v.111a1,1,0,0,1-1.6.8,12.8,12.8,0,0,1-1.722-1.723c-.846-.952-2.006-2.257-2.756-2.224-.266.012-.561.231-.874.653a3.113,3.113,0,0,1-3.515,1.133,2.464,2.464,0,0,1-1.632-2.612q0-.038.008-.075c.342-2.326-1.3-3.779-3.2-5.461a22.2,22.2,0,0,1-2.149-2.081,4.252,4.252,0,0,0-2.93-.5,5.877,5.877,0,0,1-4.231-.926,1,1,0,0,1-.094-.086q-.262-.274-.518-.544A12.1,12.1,0,0,0,103.2,49.45c-.779-.3-1.913-.45-3.78,1.146-.336.3-.726.728-.685,1.109.026.247.232.678,1.065,1.324a21.91,21.91,0,0,0,2.62,1.626,15.832,15.832,0,0,1,2.491,1.584,3.355,3.355,0,0,1,1.5,2.2c.313,1.814-1.035,3.647-2.224,5.264a12.6,12.6,0,0,0-1.31,2,1,1,0,0,1-.427.471,9.53,9.53,0,0,1-4.486.966h-.006a14.091,14.091,0,0,1-4.425-.692,1,1,0,0,1-.431-.294,15.3,15.3,0,0,0-1.643-1.567c-1.466-1.266-3.127-2.7-2.954-5.34a1.065,1.065,0,0,0-.637-1.076,3.7,3.7,0,0,0-2.952.156.393.393,0,0,0-.206.366,10.566,10.566,0,0,1-.09,2.194,3.061,3.061,0,0,0,.432,2.544,31.841,31.841,0,0,1,3.228,3.293c1.815,2.039,3.531,3.966,5.771,4.755a7.269,7.269,0,0,0,2.139-.031c1.568-.152,3.189-.309,4.16.632a2.361,2.361,0,0,1,.659,1.94,1,1,0,0,1-.243.591,66.748,66.748,0,0,1-6.421,6.34c-2.4,2.14-4.3,3.831-5.4,6.166-1.181,2.5-1.468,5.757-.928,10.567a1,1,0,0,1,0,.2,5.586,5.586,0,0,1-2.3,3.582,4.406,4.406,0,0,0-1.693,2.254A6.855,6.855,0,0,1,83,108.765a18.967,18.967,0,0,1-3.334,3.63c-.623.571-1.268,1.162-1.833,1.761a1,1,0,0,1-.179.15A6.058,6.058,0,0,1,74.233,115.164Z"/>
        <path id="Path_20331" data-name="Path 20331" d="M31.354,103.62c-.02.16-.03.31-.06.46-.03.19-.06.39-.1.58-.06.27-.13.54-.21.79-.02.06-.04.13-.06.19-.05.13-.09.25-.14.38l-.18.42c-1.42,3.14-4.52,5.23-7.52,8.36a58.612,58.612,0,0,1-12.9-15.48c-.08-.12-.15-.24-.22-.36A68.3,68.3,0,0,1,1.014,67.2c0-.4-.01-.8-.01-1.2A59.437,59.437,0,0,1,4.5,44.93c1.17-2.89,5.7-4.98,7.74-2.8,1.59,1.7-1.5,3.53-.37,4.97.6,1.43,8.27-.48,7.76.92a.7.7,0,0,1-.08.14c-8.76,9.42-4.38,3.69-12.03,6.83-1.52,2.27,4.44,4.52,2.94,6.8a33.338,33.338,0,0,0,.02,11.49c.91,1.81,4.49-3.94,5.41-2.13.42,1.36.09,2.89.2,4.3.02,1.1,3.12,2.9,3.49,3.94,1.25,3.64-2.23,6.36-2.21,6.78.07,2.44-.32,3.39,1.81,5.57a1.689,1.689,0,0,1,.42,1.05c.09,3.6-.33,2.44,2.18,5.14,2.04,3.07,8.1-.58,9.38,2.25a12.2,12.2,0,0,1,.19,3.44" fill="#5fd2b1"/>
        <path id="Path_20332" data-name="Path 20332" d="M23.084,115.8a1,1,0,0,1-.642-.233A59.324,59.324,0,0,1,9.334,99.848c-.089-.135-.162-.261-.234-.384l0-.006A69.3,69.3,0,0,1,.014,67.229q0-.014,0-.029c0-.194,0-.394,0-.587S0,66.21,0,66.006A60.215,60.215,0,0,1,3.565,44.587l.012-.032A7.479,7.479,0,0,1,9.99,40.226a3.966,3.966,0,0,1,2.984,1.221,2.534,2.534,0,0,1,.7,2.221,5.668,5.668,0,0,1-.643,1.677,4.459,4.459,0,0,0-.4.908c-.034.153-.009.185.026.229q.022.028.042.057a4.367,4.367,0,0,0,1.306.125c.669,0,1.448-.05,2.2-.1s1.441-.093,2.043-.093c1.013,0,1.771.12,2.181.706a1.274,1.274,0,0,1,.14,1.182,1,1,0,0,1-.045.1l0,.007a1.535,1.535,0,0,1-.19.31q-.023.029-.049.056A64.748,64.748,0,0,1,15.4,53.784,3.826,3.826,0,0,1,12.8,54.951c-.163,0-.316-.01-.478-.02s-.34-.021-.533-.021a9.5,9.5,0,0,0-3.519.856.9.9,0,0,0,.149.43A8.67,8.67,0,0,0,9.7,57.687a9.98,9.98,0,0,1,1.591,1.9,2.5,2.5,0,0,1,.124,2.554,32.66,32.66,0,0,0-.064,10.283c.363-.254.843-.675,1.171-.962,1.024-.9,1.908-1.673,2.847-1.673a1.56,1.56,0,0,1,1.415.9,1,1,0,0,1,.064.158,8.959,8.959,0,0,1,.242,3.034,13.3,13.3,0,0,0,0,1.483v0A8.4,8.4,0,0,0,18.614,76.9a6.288,6.288,0,0,1,1.912,2.15l0,.01c1.148,3.342-1.025,5.986-1.953,7.115-.065.079-.138.168-.2.243,0,.283,0,.544,0,.782A4.192,4.192,0,0,0,19.9,91.038a2.671,2.671,0,0,1,.708,1.724c.013.525.016.951.018,1.294A5.032,5.032,0,0,0,20.7,95.28a4.212,4.212,0,0,0,.743.848c.282.286.633.643,1.078,1.12a1,1,0,0,1,.1.127c.407.612,1.114.873,2.364.873.582,0,1.217-.058,1.832-.114s1.262-.115,1.862-.115a4.942,4.942,0,0,1,1.89.305,2.73,2.73,0,0,1,1.511,1.442,1,1,0,0,1,.072.229,13.147,13.147,0,0,1,.2,3.72q0,.013,0,.026c-.005.044-.01.086-.015.129-.012.114-.026.242-.053.381l-.008.05c-.029.182-.058.37-.1.563l0,.011c-.071.32-.15.615-.234.878l0,.011c-.008.023-.015.048-.023.073-.012.04-.025.08-.037.117q-.007.022-.015.043c-.022.058-.042.114-.062.17s-.05.138-.078.21l-.014.035-.18.42-.008.018c-1.073,2.373-3,4.167-5.049,6.067-.871.81-1.773,1.647-2.66,2.573A1,1,0,0,1,23.084,115.8ZM10.829,98.459c.064.109.124.212.187.307q.017.025.032.052a57.6,57.6,0,0,0,11.975,14.617c.7-.7,1.4-1.349,2.082-1.981,1.972-1.832,3.675-3.415,4.584-5.417l.168-.393c.02-.052.038-.1.056-.153s.044-.122.068-.185l.017-.055c.012-.038.023-.075.035-.111.065-.2.126-.435.183-.692.029-.141.054-.3.079-.455l.011-.069q0-.02.007-.04c.012-.06.02-.136.03-.226.005-.049.011-.1.017-.148A11.068,11.068,0,0,0,30.2,100.5c-.116-.2-.4-.474-1.531-.474-.508,0-1.078.052-1.68.107-.659.06-1.34.122-2.013.122A4.539,4.539,0,0,1,21,98.556c-.4-.429-.724-.757-.986-1.023a4.7,4.7,0,0,1-1.176-1.511,5.185,5.185,0,0,1-.217-1.955c0-.334,0-.75-.017-1.252a.767.767,0,0,0-.129-.369l-.007-.007A6.064,6.064,0,0,1,16.384,87.2c0-.314,0-.64-.01-1-.017-.473.252-.8.658-1.294.834-1.015,2.384-2.9,1.611-5.181a8.376,8.376,0,0,0-1.338-1.313c-1.163-1.006-2.169-1.877-2.21-2.913a15.19,15.19,0,0,1,0-1.687,10.461,10.461,0,0,0-.037-1.84,15.091,15.091,0,0,0-1.215.993c-1.021.895-1.9,1.668-2.837,1.668a1.554,1.554,0,0,1-1.414-.908,1,1,0,0,1-.09-.268A34.555,34.555,0,0,1,9.48,61.61a1,1,0,0,1,.148-.369c.072-.11.162-.247-.073-.659a8.713,8.713,0,0,0-1.28-1.492,9.933,9.933,0,0,1-1.591-1.9,2.467,2.467,0,0,1,.009-2.752,1,1,0,0,1,.451-.369,11.859,11.859,0,0,1,4.649-1.155c.256,0,.469.013.657.025.136.008.253.016.354.016.633,0,1.545-.705,5.082-4.471-.463.013-.994.047-1.549.083-.784.05-1.6.1-2.329.1-1.21,0-2.5-.128-2.993-1.043a2.2,2.2,0,0,1-.334-1.8,5.846,5.846,0,0,1,.57-1.392c.529-1.028.571-1.285.261-1.617a1.993,1.993,0,0,0-1.523-.587A5.482,5.482,0,0,0,5.437,45.29,58.224,58.224,0,0,0,2,65.989S2,66,2,66c0,.194,0,.394,0,.588s0,.4.005.6a67.3,67.3,0,0,0,8.815,31.273Z"/>
      </g>
    </g>
  </g>
</svg>
